<?xml version="1.0" encoding="UTF-8" standalone="no"?>
<!-- Created with Inkscape (http://www.inkscape.org/) -->
<svg xmlns:dc="http://purl.org/dc/elements/1.1/" xmlns:cc="http://creativecommons.org/ns#" xmlns:rdf="http://www.w3.org/1999/02/22-rdf-syntax-ns#" xmlns:svg="http://www.w3.org/2000/svg" xmlns="http://www.w3.org/2000/svg" xmlns:sodipodi="http://sodipodi.sourceforge.net/DTD/sodipodi-0.dtd" xmlns:inkscape="http://www.inkscape.org/namespaces/inkscape" width="750" height="566" viewBox="0 0 198.4375 149.75417" version="1.1" id="svg8" style="enable-background:new">
  <defs id="defs2"/>
  
  <metadata id="metadata5">
    
  </metadata>
  <g id="layer1" style="display:inline">
    <g id="layer2" style="display:inline">
      <path style="fill:#f2dcc2;stroke:#000000;stroke-width:0.26458332px;stroke-linecap:butt;stroke-linejoin:miter;stroke-opacity:1" d="M 52.392722,128.98614 34.054893,88.408482 27.23952,73.508209 25.903174,70.635059 20.223697,58.073389 9.9648956,34.964559 l 33.0729164,-15.875 25.56229,55.45486 1.536179,3.17328 12.400042,26.983471 9.402155,-0.0472 63.830732,-0.14175 4.43098,-0.0108 11.16053,24.29576 -23.09835,0.0226 -0.0905,-10.56941 -65.422041,-0.10028 0.05502,10.83249 c -7.819942,0.0147 -15.639839,-0.0467 -23.459746,-0.02 z" id="background"/>
      <path style="fill:none;stroke:#000000;stroke-width:0.21281232px;stroke-linecap:butt;stroke-linejoin:miter;stroke-opacity:1" d="m 81.222755,128.85579 c 0,-3.88739 0.02172,-3.95384 0.02172,-3.95384 H 69.161047 v 4.05351 z" id="sector_i"/>
      <path style="fill:#ceb9a0;stroke:#000000;stroke-width:0.26458332px;stroke-linecap:butt;stroke-linejoin:miter;stroke-opacity:1" d="m 56.505535,128.89982 v -5.81311 L 72.608524,115.87043 62.452281,93.553422 41.169267,104.091 52.392722,128.98614 Z" id="classroom_1"/>
      <rect style="fill:#ceb9a0;fill-opacity:1;stroke:#000000;stroke-width:0.26048261;stroke-miterlimit:4;stroke-dasharray:none" id="stuff_1" width="9.650609" height="5.4671497" x="57.503277" y="123.08447"/>
      <path style="fill:none;stroke:#000000;stroke-width:0.25600001;stroke-linecap:butt;stroke-linejoin:miter;stroke-miterlimit:4;stroke-dasharray:0.76800004, 0.25600001;stroke-dashoffset:0;stroke-opacity:1" d="m 82.804849,128.98258 65.457521,-0.1628" id="path1210"/>
    </g>
    <path style="fill:none;stroke:#000000;stroke-width:0.26458332px;stroke-linecap:butt;stroke-linejoin:miter;stroke-opacity:1" d="m 41.169341,104.09111 -5.711206,-12.608908 21.916098,-10.356703 5.678673,12.112473 -0.600551,0.31556 z" id="toilet_1"/>
    <path style="fill:none;stroke:#000000;stroke-width:0.26458332px;stroke-linecap:butt;stroke-linejoin:miter;stroke-opacity:1" d="m 72.608598,115.87054 3.785687,-1.67261 -6.648238,-14.525138 -3.685268,1.748138 z" id="sector_k"/>
    <path style="fill:#ceb9a0;stroke:#000000;stroke-width:0.26458332px;stroke-linecap:butt;stroke-linejoin:miter;stroke-opacity:1" d="M 34.054967,88.408592 60.180566,75.579659 53.69928,61.213919 27.239594,73.508319 Z" id="classroom_2"/>
    <path style="fill:none;stroke:#000000;stroke-width:0.26458332px;stroke-linecap:butt;stroke-linejoin:miter;stroke-opacity:1" d="m 25.903248,70.635169 0.357539,-0.17114 21.558562,-10.31919 -5.278572,-12.6953 -22.317006,10.62396 z" id="toilet_2"/>
    <path id="classroom_4" style="fill:#ceb9a0;stroke:#000000;stroke-width:0.26458332px;stroke-linecap:butt;stroke-linejoin:miter;stroke-opacity:1" d="m 31.983705,24.397759 -22.0188094,10.5668 9.0562934,20.30263 c 0.200453,-0.4009 21.648808,-10.55698 21.648808,-10.55698 z"/>
    <path style="fill:none;stroke:#000000;stroke-width:0.26458332px;stroke-linecap:butt;stroke-linejoin:miter;stroke-opacity:1" d="m 62.519409,83.236889 -3.543527,1.6064 -1.601649,-3.71779 3.449032,-1.5119 z" id="sector_m"/>
    <path style="fill:none;stroke:#000000;stroke-width:0.26458332px;stroke-linecap:butt;stroke-linejoin:miter;stroke-opacity:1" d="m 60.57128,57.162729 c -0.283483,0.14174 -3.64711,1.6236 -3.64711,1.6236 l 6.798824,14.65462 3.599861,-1.76534 z" id="sector_n"/>
    <path style="fill:none;stroke:#000000;stroke-width:0.26458332px;stroke-linecap:butt;stroke-linejoin:miter;stroke-opacity:1" d="m 73.45365,84.848644 -3.662339,1.62261 6.575529,14.425246 3.709588,-1.575358 z" id="sector_l"/>
    <path style="fill:#ceb9a0;stroke:#000000;stroke-width:0.29288447px;stroke-linecap:butt;stroke-linejoin:miter;stroke-opacity:1" d="m 82.845041,104.65403 v 8.8352 h 49.442469 l -0.1158,-8.8352 z" id="stuff"/>
    <path style="fill:none;stroke:#000000;stroke-width:0.26458332px;stroke-linecap:butt;stroke-linejoin:miter;stroke-opacity:1" d="m 148.02076,104.60679 0.0945,8.83519 7.74853,-0.0945 -0.0945,-8.8352 z" id="toilet_3"/>
    <path style="fill:#ceb9a0;stroke:#000000;stroke-width:0.26458332px;stroke-linecap:butt;stroke-linejoin:miter;stroke-opacity:1" d="m 160.20027,104.50148 -3.8695,0.0268 0.36749,24.28812 14.66253,-0.0192 z" id="classroom_3"/>
    <path style="fill:none;stroke:#000000;stroke-width:0.26458332px;stroke-linecap:butt;stroke-linejoin:miter;stroke-opacity:1" d="m 67.032332,83.71758 c 0.732327,0 0.779577,0 0.779577,0 v -0.89769 h 0.732327 v -0.850454 h 0.874069 v -1.06305 h 0.826823" id="stairs_1"/>
    <path style="fill:none;stroke:#000000;stroke-width:0.26458332px;stroke-linecap:butt;stroke-linejoin:miter;stroke-opacity:1" d="m 63.385019,117.40977 c 0.732327,0 0.779577,0 0.779577,0 v -0.89769 h 0.732327 v -0.85045 h 0.874069 v -1.06305 h 0.826823" id="stairs_2"/>
    <path style="fill:none;stroke:#000000;stroke-width:0.26458332px;stroke-linecap:butt;stroke-linejoin:miter;stroke-opacity:1" d="m 137.81957,110.72803 c 0.73233,0 0.77958,0 0.77958,0 v -0.89769 h 0.73232 v -0.85045 h 0.87407 v -1.06305 h 0.82682" id="stairs_3"/>
    <path style="fill:none;stroke:#000000;stroke-width:0.26458332px;stroke-linecap:butt;stroke-linejoin:miter;stroke-opacity:1" d="m 150.38125,125.02695 c 0.73232,0 0.77958,0 0.77958,0 v -0.89769 h 0.73233 v -0.85045 h 0.87406 v -1.06305 h 0.82682" id="stairs_4"/>
    <path style="fill:none;stroke:#000000;stroke-width:0.26458332px;stroke-linecap:butt;stroke-linejoin:miter;stroke-opacity:1" d="m 51.920327,53.095719 c 0.732327,0 0.779577,0 0.779577,0 v -0.8977 h 0.732327 v -0.85045 H 54.3063 v -1.06305 h 0.826823" id="stairs_5"/>
    <path style="fill:none;stroke:#000000;stroke-width:0.26458332px;stroke-linecap:butt;stroke-linejoin:miter;stroke-opacity:1" d="m 40.486548,28.621749 c 0.732327,0 0.779577,0 0.779577,0 v -0.89768 h 0.732327 v -0.85045 h 0.874069 v -1.06305 h 0.826823" id="stairs_6"/>
    <path style="fill:#000000;stroke:#000000;stroke-width:0.26458332px;stroke-linecap:butt;stroke-linejoin:miter;stroke-opacity:1" d="m 36.052064,26.310776 c 0.791387,0.0118 0.803198,0.0118 0.803198,0.0118 l 0.02363,1.358352 -0.02363,-1.358352 0.755953,-0.0059 -0.696893,-1.37607 z" id="path4103"/>
    <path style="fill:#000000;stroke:#000000;stroke-width:0.26458332px;stroke-linecap:butt;stroke-linejoin:miter;stroke-opacity:1" d="m 38.047889,26.297123 c 0.791387,-0.0118 0.803198,-0.0118 0.803198,-0.0118 l 0.02363,-1.358352 -0.02363,1.358352 0.755953,0.0059 -0.696893,1.37607 z" id="path4103-3"/>
    <path style="fill:#000000;stroke:#000000;stroke-width:0.26458332px;stroke-linecap:butt;stroke-linejoin:miter;stroke-opacity:1" d="m 142.99479,109.06894 c 0.79138,0.0118 0.8032,0.0118 0.8032,0.0118 l 0.0236,1.35836 -0.0236,-1.35836 0.75595,-0.006 -0.69688,-1.37607 z" id="path4103-5"/>
    <path style="fill:#000000;stroke:#000000;stroke-width:0.26458332px;stroke-linecap:butt;stroke-linejoin:miter;stroke-opacity:1" d="m 144.99061,109.05529 c 0.79139,-0.0118 0.8032,-0.0118 0.8032,-0.0118 l 0.0236,-1.35835 -0.0236,1.35835 0.75596,0.006 -0.69689,1.37607 z" id="path4103-3-5"/>
    <text xml:space="preserve" style="font-style:normal;font-variant:normal;font-weight:normal;font-stretch:normal;font-size:4.93888903px;line-height:1.25;font-family:Consolas;-inkscape-font-specification:Consolas;letter-spacing:0px;word-spacing:0px;fill:#000000;fill-opacity:1;stroke:none;stroke-width:0.26458332" x="149.64906" y="110.52515" id="wc_label_1"><tspan id="tspan4950" x="149.64906" y="110.52515" style="font-style:normal;font-variant:normal;font-weight:normal;font-stretch:normal;font-size:4.93888903px;font-family:Consolas;-inkscape-font-specification:Consolas;stroke-width:0.26458332">WC</tspan></text>
    <text xml:space="preserve" style="font-style:normal;font-variant:normal;font-weight:normal;font-stretch:normal;font-size:4.93888903px;line-height:1.25;font-family:Consolas;-inkscape-font-specification:Consolas;letter-spacing:0px;word-spacing:0px;fill:#000000;fill-opacity:1;stroke:none;stroke-width:0.26458332" x="53.156483" y="91.120461" id="wc_label_2"><tspan id="tspan4950-5" x="53.156483" y="91.120461" style="font-style:normal;font-variant:normal;font-weight:normal;font-stretch:normal;font-size:4.93888903px;font-family:Consolas;-inkscape-font-specification:Consolas;stroke-width:0.26458332">WC</tspan></text>
    <text xml:space="preserve" style="font-style:normal;font-variant:normal;font-weight:normal;font-stretch:normal;font-size:4.93888903px;line-height:1.25;font-family:Consolas;-inkscape-font-specification:Consolas;letter-spacing:0px;word-spacing:0px;fill:#000000;fill-opacity:1;stroke:none;stroke-width:0.26458332" x="37.387577" y="57.711773" id="wc_label_3"><tspan id="tspan4950-7" x="37.387577" y="57.711773" style="font-style:normal;font-variant:normal;font-weight:normal;font-stretch:normal;font-size:4.93888903px;font-family:Consolas;-inkscape-font-specification:Consolas;stroke-width:0.26458332">WC</tspan></text>
    <path style="display:inline;fill:none;stroke:#000000;stroke-width:0.26458332px;stroke-linecap:butt;stroke-linejoin:miter;stroke-opacity:1;enable-background:new" d="m 47.685953,49.560929 -3.543527,1.6064 -1.601649,-3.71779 3.449032,-1.5119 z" id="sector_p"/>
    <path style="display:inline;fill:none;stroke:#000000;stroke-width:0.26458332px;stroke-linecap:butt;stroke-linejoin:miter;stroke-opacity:1;enable-background:new" d="m 51.362876,58.538439 -3.543527,1.6064 -1.601649,-3.71779 3.449032,-1.5119 z" id="sector_o"/>
    <path style="display:inline;fill:none;stroke:#000000;stroke-width:0.26458332px;stroke-linecap:butt;stroke-linejoin:miter;stroke-opacity:1;enable-background:new" d="m 82.610707,104.77575 -3.54353,1.6064 -1.60165,-3.71779 3.44903,-1.5119 z" id="sector_j"/>
  </g>
  <g id="layer9" style="display:inline">
    <path style="fill:none;stroke:none;stroke-width:0.00640369;stroke-miterlimit:4;stroke-dasharray:none" d="m 45.989809,45.937639 c 0.13876,0.303 0.277521,0.606 0.416281,0.909 -1.168978,0.536 -2.337955,1.071 -3.506933,1.606 -0.13876,-0.303 -0.277521,-0.606 -0.416281,-0.909 1.168978,-0.535 2.337956,-1.071 3.506933,-1.606 z" id="p1">
      <title id="title827">H1</title>
    </path>
    <path style="display:inline;fill:none;stroke:none;stroke-width:0.00640369;stroke-miterlimit:4;stroke-dasharray:none" d="m 46.40609,46.846639 c 0.13876,0.304 0.277521,0.607 0.416281,0.91 -1.168978,0.535 -2.337955,1.07 -3.506933,1.605 -0.13876,-0.303 -0.277521,-0.606 -0.416281,-0.909 1.168978,-0.535 2.337955,-1.07 3.506933,-1.606 z" id="p2">
      <title id="title830">H2</title>
    </path>
    <path style="display:inline;fill:none;stroke:none;stroke-width:0.00640369;stroke-miterlimit:4;stroke-dasharray:none" d="m 46.822371,47.756639 c 0.13876,0.303 0.27752,0.606 0.416281,0.909 -1.168978,0.535 -2.337956,1.07 -3.506933,1.606 -0.13876,-0.304 -0.277521,-0.607 -0.416281,-0.91 1.168978,-0.535 2.337955,-1.07 3.506933,-1.605 z" id="p3">
      <title id="title833">H3</title>
    </path>
    <path style="display:inline;fill:none;stroke:none;stroke-width:0.00640369;stroke-miterlimit:4;stroke-dasharray:none" d="m 47.238652,48.665639 c 0.13876,0.303 0.27752,0.606 0.41628,0.909 -1.168977,0.535 -2.337955,1.071 -3.506932,1.606 -0.138761,-0.303 -0.277521,-0.606 -0.416281,-0.909 1.168977,-0.536 2.337955,-1.071 3.506933,-1.606 z" id="p4">
      <title id="title836">H4</title>
    </path>
  </g>
  <g id="layer8" style="display:inline">
    <path style="fill:none;stroke:none;stroke-width:0.00640369;stroke-miterlimit:4;stroke-dasharray:none" d="m 49.697753,54.901494 c 0.13876,0.303079 0.277521,0.606158 0.416281,0.909237 -1.168978,0.535199 -2.337955,1.070399 -3.506933,1.605599 -0.13876,-0.303079 -0.27752,-0.606158 -0.416281,-0.909236 1.168978,-0.5352 2.337956,-1.0704 3.506933,-1.6056 z" id="o1">
      <title id="title815">G1</title>
    </path>
    <path style="display:inline;fill:none;stroke:none;stroke-width:0.00640369;stroke-miterlimit:4;stroke-dasharray:none" d="m 50.114034,55.810731 c 0.13876,0.303078 0.277521,0.606157 0.416281,0.909236 -1.168978,0.535199 -2.337955,1.070399 -3.506933,1.605599 -0.13876,-0.303079 -0.277521,-0.606158 -0.416281,-0.909236 1.168978,-0.5352 2.337955,-1.0704 3.506933,-1.605599 z" id="o2">
      <title id="title818">G2</title>
    </path>
    <path style="display:inline;fill:none;stroke:none;stroke-width:0.00640369;stroke-miterlimit:4;stroke-dasharray:none" d="m 50.530315,56.719967 c 0.13876,0.303078 0.27752,0.606157 0.416281,0.909236 -1.168978,0.535199 -2.337956,1.070399 -3.506933,1.605599 -0.13876,-0.303078 -0.277521,-0.606158 -0.416281,-0.909236 1.168978,-0.5352 2.337955,-1.0704 3.506933,-1.605599 z" id="o3">
      <title id="title821">G3</title>
    </path>
    <path style="display:inline;fill:none;stroke:none;stroke-width:0.00640369;stroke-miterlimit:4;stroke-dasharray:none" d="m 50.946596,57.629203 c 0.13876,0.303078 0.27752,0.606157 0.41628,0.909236 -1.168977,0.5352 -2.337955,1.070399 -3.506932,1.605599 -0.138761,-0.303078 -0.277521,-0.606158 -0.416281,-0.909236 1.168977,-0.5352 2.337955,-1.0704 3.506933,-1.605599 z" id="o4">
      <title id="title824">G4</title>
    </path>
  </g>
  <g id="layer7" style="display:inline;fill:none">
    <path style="fill:none;stroke:none;stroke-width:0.00640369;stroke-miterlimit:4;stroke-dasharray:none" d="m 60.662363,57.127834 c 0.13876,0.303079 0.277521,0.606158 0.416281,0.909236 -1.168978,0.5352 -2.337955,1.0704 -3.506933,1.6056 -0.13876,-0.303079 -0.27752,-0.606158 -0.416281,-0.909237 1.168978,-0.535199 2.337956,-1.070399 3.506933,-1.605599 z" id="n1">
      <title id="title767">F1</title>
    </path>
    <path style="display:inline;fill:none;stroke:none;stroke-width:0.00640369;stroke-miterlimit:4;stroke-dasharray:none" d="m 61.078644,58.03707 c 0.13876,0.303079 0.277521,0.606158 0.416281,0.909236 -1.168978,0.5352 -2.337955,1.0704 -3.506933,1.6056 -0.13876,-0.303079 -0.277521,-0.606158 -0.416281,-0.909236 1.168978,-0.5352 2.337955,-1.0704 3.506933,-1.6056 z" id="n2">
      <title id="title770">F2</title>
    </path>
    <path style="display:inline;fill:none;stroke:none;stroke-width:0.00640369;stroke-miterlimit:4;stroke-dasharray:none" d="m 61.494925,58.946306 c 0.13876,0.303079 0.27752,0.606158 0.416281,0.909237 -1.168978,0.535199 -2.337956,1.070399 -3.506933,1.605599 -0.13876,-0.303079 -0.277521,-0.606158 -0.416281,-0.909236 1.168978,-0.5352 2.337955,-1.0704 3.506933,-1.6056 z" id="n3">
      <title id="title773">F3</title>
    </path>
    <path style="display:inline;fill:none;stroke:none;stroke-width:0.00640369;stroke-miterlimit:4;stroke-dasharray:none" d="m 61.911206,59.855543 c 0.13876,0.303078 0.27752,0.606157 0.41628,0.909236 -1.168977,0.535199 -2.337955,1.070399 -3.506932,1.605599 -0.138761,-0.303079 -0.277521,-0.606158 -0.416281,-0.909236 1.168977,-0.5352 2.337955,-1.0704 3.506933,-1.605599 z" id="n4">
      <title id="title776">F4</title>
    </path>
    <path style="display:inline;fill:none;stroke:none;stroke-width:0.00640369;stroke-miterlimit:4;stroke-dasharray:none" d="m 62.327486,60.764779 c 0.13876,0.303078 0.277521,0.606157 0.416281,0.909236 -1.168977,0.535199 -2.337955,1.070399 -3.506933,1.605599 -0.13876,-0.303078 -0.27752,-0.606158 -0.41628,-0.909236 1.168977,-0.5352 2.337955,-1.0704 3.506932,-1.605599 z" id="n5">
      <title id="title779">F5</title>
    </path>
    <path style="display:inline;fill:none;stroke:none;stroke-width:0.00640369;stroke-miterlimit:4;stroke-dasharray:none" d="m 62.743767,61.674015 c 0.13876,0.303078 0.277521,0.606157 0.416281,0.909236 -1.168978,0.5352 -2.337955,1.070399 -3.506933,1.605599 -0.13876,-0.303078 -0.277521,-0.606158 -0.416281,-0.909236 1.168978,-0.5352 2.337956,-1.0704 3.506933,-1.605599 z" id="n6">
      <title id="title782">F6</title>
    </path>
    <path style="display:inline;fill:none;stroke:none;stroke-width:0.00640369;stroke-miterlimit:4;stroke-dasharray:none" d="m 63.160048,62.583251 c 0.13876,0.303078 0.277521,0.606158 0.416281,0.909236 -1.168978,0.5352 -2.337955,1.070399 -3.506933,1.605599 -0.13876,-0.303078 -0.277521,-0.606158 -0.416281,-0.909236 1.168978,-0.5352 2.337955,-1.070399 3.506933,-1.605599 z" id="n7">
      <title id="title785">F7</title>
    </path>
    <path style="display:inline;fill:none;stroke:none;stroke-width:0.00640369;stroke-miterlimit:4;stroke-dasharray:none" d="m 63.576329,63.492487 c 0.13876,0.303078 0.27752,0.606158 0.41628,0.909236 -1.168977,0.5352 -2.337955,1.0704 -3.506932,1.605599 -0.13876,-0.303078 -0.277521,-0.606157 -0.416281,-0.909236 1.168978,-0.5352 2.337955,-1.070399 3.506933,-1.605599 z" id="n8">
      <title id="title788">F8</title>
    </path>
    <path style="display:inline;fill:none;stroke:none;stroke-width:0.00640369;stroke-miterlimit:4;stroke-dasharray:none" d="m 63.992609,64.401723 c 0.138761,0.303078 0.277521,0.606158 0.416281,0.909236 -1.168977,0.5352 -2.337955,1.0704 -3.506932,1.605599 -0.138761,-0.303078 -0.277521,-0.606157 -0.416281,-0.909236 1.168977,-0.535199 2.337955,-1.070399 3.506932,-1.605599 z" id="n9">
      <title id="title791">F9</title>
    </path>
    <path style="display:inline;fill:none;stroke:none;stroke-width:0.00640369;stroke-miterlimit:4;stroke-dasharray:none" d="m 64.40889,65.310959 c 0.13876,0.303078 0.27752,0.606156 0.41628,0.909234 -1.168978,0.535199 -2.337955,1.070399 -3.506933,1.605599 -0.13876,-0.303078 -0.27752,-0.606156 -0.416279,-0.909234 1.168977,-0.535199 2.337955,-1.070399 3.506932,-1.605599 z" id="n10">
      <title id="title794">F10</title>
    </path>
    <path style="display:inline;fill:none;stroke:none;stroke-width:0.00640369;stroke-miterlimit:4;stroke-dasharray:none" d="m 64.82517,66.220193 c 0.138759,0.303075 0.277522,0.60616 0.416281,0.909236 -1.168978,0.535199 -2.337956,1.070399 -3.506933,1.605599 -0.138759,-0.303076 -0.277522,-0.606161 -0.416281,-0.909236 1.168978,-0.5352 2.337955,-1.0704 3.506933,-1.605599 z" id="n11">
      <title id="title797">F11</title>
    </path>
    <path style="display:inline;fill:none;stroke:none;stroke-width:0.00640369;stroke-miterlimit:4;stroke-dasharray:none" d="m 65.241451,67.129429 c 0.138758,0.303075 0.277522,0.60616 0.41628,0.909236 -1.168977,0.5352 -2.337955,1.070399 -3.506932,1.605599 -0.138759,-0.303076 -0.277522,-0.60616 -0.416281,-0.909236 1.168977,-0.5352 2.337955,-1.0704 3.506933,-1.605599 z" id="n12">
      <title id="title800">F12</title>
    </path>
    <path style="display:inline;fill:none;stroke:none;stroke-width:0.00640369;stroke-miterlimit:4;stroke-dasharray:none" d="m 65.657731,68.038665 c 0.138759,0.303075 0.277522,0.60616 0.416281,0.909236 -1.168977,0.5352 -2.337955,1.070399 -3.506933,1.605599 -0.138758,-0.303076 -0.277521,-0.60616 -0.41628,-0.909236 1.168977,-0.5352 2.337955,-1.070399 3.506932,-1.605599 z" id="n13">
      <title id="title803">F13</title>
    </path>
    <path style="display:inline;fill:none;stroke:none;stroke-width:0.00640369;stroke-miterlimit:4;stroke-dasharray:none" d="m 66.074012,68.947901 c 0.138759,0.303076 0.277522,0.60616 0.416281,0.909236 -1.168978,0.5352 -2.337955,1.070399 -3.506933,1.605599 -0.138759,-0.303075 -0.277522,-0.60616 -0.416281,-0.909236 1.168978,-0.5352 2.337956,-1.070399 3.506933,-1.605599 z" id="n14">
      <title id="title806">F14</title>
    </path>
    <path style="display:inline;fill:none;stroke:none;stroke-width:0.00640369;stroke-miterlimit:4;stroke-dasharray:none" d="m 66.490293,69.857137 c 0.138759,0.303076 0.277522,0.60616 0.416281,0.909236 -1.168978,0.5352 -2.337955,1.0704 -3.506933,1.605599 -0.138759,-0.303075 -0.277522,-0.60616 -0.416281,-0.909236 1.168978,-0.5352 2.337955,-1.070399 3.506933,-1.605599 z" id="n15">
      <title id="title809">F15</title>
    </path>
    <path style="display:inline;fill:none;stroke:none;stroke-width:0.00640369;stroke-miterlimit:4;stroke-dasharray:none" d="m 66.906574,70.766373 c 0.138759,0.303076 0.277522,0.606161 0.416281,0.909236 -1.168978,0.5352 -2.337956,1.0704 -3.506933,1.605599 -0.138759,-0.303075 -0.277522,-0.60616 -0.416281,-0.909236 1.168978,-0.535199 2.337955,-1.070399 3.506933,-1.605599 z" id="n16">
      <title id="title812">F16</title>
    </path>
  </g>
  <g id="layer10" style="display:inline">
    <path style="fill:none;stroke:none;stroke-width:0.00640369;stroke-miterlimit:4;stroke-dasharray:none" d="m 60.854286,79.599944 c 0.13876,0.303079 0.277521,0.606157 0.416281,0.909236 -1.168978,0.5352 -2.337955,1.070399 -3.506933,1.605599 -0.13876,-0.303079 -0.277521,-0.606157 -0.416281,-0.909236 1.168978,-0.5352 2.337955,-1.070399 3.506933,-1.605599 z" id="m1">
      <title id="title755">E1</title>
    </path>
    <path style="display:inline;fill:none;stroke:none;stroke-width:0.00640369;stroke-miterlimit:4;stroke-dasharray:none" d="m 61.270567,80.50918 c 0.13876,0.303079 0.277521,0.606157 0.416281,0.909236 -1.168978,0.5352 -2.337955,1.0704 -3.506933,1.6056 -0.13876,-0.303079 -0.277521,-0.606158 -0.416281,-0.909237 1.168978,-0.5352 2.337955,-1.070399 3.506933,-1.605599 z" id="m2">
      <title id="title758">E2</title>
    </path>
    <path style="display:inline;fill:none;stroke:none;stroke-width:0.00640369;stroke-miterlimit:4;stroke-dasharray:none" d="m 61.686848,81.418416 c 0.13876,0.303079 0.277521,0.606157 0.416281,0.909236 -1.168978,0.5352 -2.337955,1.0704 -3.506933,1.6056 -0.13876,-0.303079 -0.277521,-0.606157 -0.416281,-0.909236 1.168978,-0.5352 2.337955,-1.0704 3.506933,-1.6056 z" id="m3">
      <title id="title761">E3</title>
    </path>
    <path style="display:inline;fill:none;stroke:none;stroke-width:0.00640369;stroke-miterlimit:4;stroke-dasharray:none" d="m 62.103129,82.327652 c 0.13876,0.303079 0.27752,0.606158 0.41628,0.909237 -1.168977,0.5352 -2.337955,1.070399 -3.506932,1.605599 -0.13876,-0.303079 -0.277521,-0.606157 -0.416281,-0.909236 1.168978,-0.5352 2.337955,-1.0704 3.506933,-1.6056 z" id="m4">
      <title id="title764">E4</title>
    </path>
  </g>
  <g id="layer6" style="display:inline;fill:#ff0000">
    <path style="fill:none;stroke:none;stroke-width:0.00640369;stroke-miterlimit:4;stroke-dasharray:none" d="m 73.213284,84.743132 c 0.13876,0.30308 0.277521,0.60616 0.416281,0.90924 -1.168978,0.5352 -2.337955,1.07039 -3.506933,1.60559 -0.13876,-0.30307 -0.27752,-0.60615 -0.41628,-0.90923 1.168977,-0.5352 2.337955,-1.0704 3.506932,-1.6056 z" id="l1">
      <title id="title707">D1</title>
    </path>
    <path style="display:inline;fill:none;stroke:none;stroke-width:0.00640369;stroke-miterlimit:4;stroke-dasharray:none" d="m 73.629565,85.652372 c 0.13876,0.30307 0.277521,0.60615 0.416281,0.90923 -1.168978,0.5352 -2.337955,1.0704 -3.506933,1.6056 -0.13876,-0.30308 -0.277521,-0.60616 -0.416281,-0.90924 1.168978,-0.5352 2.337955,-1.07039 3.506933,-1.60559 z" id="l2">
      <title id="title710">D2</title>
    </path>
    <path style="display:inline;fill:none;stroke:none;stroke-width:0.00640369;stroke-miterlimit:4;stroke-dasharray:none" d="m 74.045846,86.561602 c 0.13876,0.30308 0.277521,0.60616 0.416281,0.90924 -1.168978,0.5352 -2.337955,1.0704 -3.506933,1.6056 -0.13876,-0.30308 -0.277521,-0.60616 -0.416281,-0.90924 1.168978,-0.5352 2.337955,-1.0704 3.506933,-1.6056 z" id="l3">
      <title id="title713">D3</title>
    </path>
    <path style="display:inline;fill:none;stroke:none;stroke-width:0.00640369;stroke-miterlimit:4;stroke-dasharray:none" d="m 74.462127,87.470842 c 0.13876,0.30308 0.277521,0.60615 0.416281,0.90923 -1.168978,0.5352 -2.337955,1.0704 -3.506933,1.6056 -0.13876,-0.30307 -0.277521,-0.60615 -0.416281,-0.90923 1.168978,-0.5352 2.337955,-1.0704 3.506933,-1.6056 z" id="l4">
      <title id="title716">D4</title>
    </path>
    <path style="display:inline;fill:none;stroke:none;stroke-width:0.00640369;stroke-miterlimit:4;stroke-dasharray:none" d="m 74.878408,88.380072 c 0.13876,0.30308 0.27752,0.60616 0.41628,0.90924 -1.168977,0.5352 -2.337955,1.0704 -3.506932,1.6056 -0.13876,-0.30308 -0.277521,-0.60616 -0.416281,-0.90924 1.168978,-0.5352 2.337955,-1.0704 3.506933,-1.6056 z" id="l5">
      <title id="title719">D5</title>
    </path>
    <path style="display:inline;fill:none;stroke:none;stroke-width:0.00640369;stroke-miterlimit:4;stroke-dasharray:none" d="m 75.294688,89.289312 c 0.13876,0.30308 0.277521,0.60616 0.416281,0.90924 -1.168978,0.5352 -2.337955,1.0704 -3.506933,1.6056 -0.13876,-0.30308 -0.27752,-0.60616 -0.41628,-0.90924 1.168977,-0.5352 2.337955,-1.0704 3.506932,-1.6056 z" id="l6">
      <title id="title722">D6</title>
    </path>
    <path style="display:inline;fill:none;stroke:none;stroke-width:0.00640369;stroke-miterlimit:4;stroke-dasharray:none" d="m 75.710969,90.198552 c 0.13876,0.30308 0.277521,0.60615 0.416281,0.90923 -1.168978,0.5352 -2.337955,1.0704 -3.506933,1.6056 -0.13876,-0.30308 -0.277521,-0.60616 -0.416281,-0.90923 1.168978,-0.5352 2.337955,-1.0704 3.506933,-1.6056 z" id="l7">
      <title id="title725">D7</title>
    </path>
    <path style="display:inline;fill:none;stroke:none;stroke-width:0.00640369;stroke-miterlimit:4;stroke-dasharray:none" d="m 76.12725,91.107782 c 0.13876,0.30308 0.277521,0.60616 0.416281,0.90924 -1.168978,0.5352 -2.337955,1.0704 -3.506933,1.6056 -0.13876,-0.30308 -0.277521,-0.60616 -0.416281,-0.90924 1.168978,-0.5352 2.337955,-1.0704 3.506933,-1.6056 z" id="l8">
      <title id="title728">D8</title>
    </path>
    <path style="display:inline;fill:none;stroke:none;stroke-width:0.00640369;stroke-miterlimit:4;stroke-dasharray:none" d="m 76.543531,92.017022 c 0.13876,0.30308 0.277521,0.60616 0.416281,0.90923 -1.168978,0.5352 -2.337955,1.0704 -3.506933,1.605598 -0.13876,-0.303078 -0.277521,-0.606148 -0.416281,-0.909228 1.168978,-0.5352 2.337955,-1.0704 3.506933,-1.6056 z" id="l9">
      <title id="title731">D9</title>
    </path>
    <path style="display:inline;fill:none;stroke:none;stroke-width:0.00640369;stroke-miterlimit:4;stroke-dasharray:none" d="m 76.959812,92.926252 c 0.13876,0.30308 0.277519,0.60616 0.416279,0.90924 -1.168978,0.5352 -2.337955,1.070398 -3.506933,1.605598 -0.13876,-0.30308 -0.277519,-0.60616 -0.416279,-0.90924 1.168978,-0.535198 2.337955,-1.070398 3.506933,-1.605598 z" id="l10">
      <title id="title734">D10</title>
    </path>
    <path style="display:inline;fill:none;stroke:none;stroke-width:0.00640369;stroke-miterlimit:4;stroke-dasharray:none" d="m 77.376091,93.835492 c 0.13876,0.30308 0.277521,0.60616 0.416281,0.909228 -1.168978,0.5352 -2.337955,1.0704 -3.506933,1.6056 -0.13876,-0.30307 -0.277521,-0.60615 -0.416281,-0.90923 1.168978,-0.5352 2.337955,-1.070398 3.506933,-1.605598 z" id="l11">
      <title id="title737">D11</title>
    </path>
    <path style="display:inline;fill:none;stroke:none;stroke-width:0.00640369;stroke-miterlimit:4;stroke-dasharray:none" d="m 77.804065,94.74472 0.416281,0.90924 -3.506933,1.6056 -0.427974,-0.90924 3.518629,-1.6056 z" id="l12">
      <title id="title740">D12</title>
    </path>
    <path style="display:inline;fill:none;stroke:none;stroke-width:0.00640369;stroke-miterlimit:4;stroke-dasharray:none" d="m 78.208653,95.65396 0.41628,0.90924 -3.506932,1.60559 -0.404588,-0.90923 3.495244,-1.6056 z" id="l13">
      <title id="title743">D13</title>
    </path>
    <path style="display:inline;fill:none;stroke:none;stroke-width:0.00640369;stroke-miterlimit:4;stroke-dasharray:none" d="m 78.624933,96.5632 0.416281,0.90923 -3.506935,1.6056 -0.416278,-0.90924 3.506934,-1.60559 z" id="l14">
      <title id="title746">D14</title>
    </path>
    <path style="display:inline;fill:none;stroke:none;stroke-width:0.00640369;stroke-miterlimit:4;stroke-dasharray:none" d="m 79.041214,97.47243 0.416281,0.90924 -3.506936,1.6056 -0.41628,-0.90924 z" id="l15">
      <title id="title749">D15</title>
    </path>
    <path style="display:inline;opacity:1;fill:none;stroke:none;stroke-width:0.00640369;stroke-miterlimit:4;stroke-dasharray:none" d="m 79.457495,98.38167 0.378567,0.83396 -3.469222,1.68087 -0.416281,-0.90923 z" id="l16">
      <title id="title752">D16</title>
    </path>
  </g>
  <g id="layer5" style="display:inline">
    <path style="fill:none;stroke:none;stroke-width:0.00640369;stroke-miterlimit:4;stroke-dasharray:none" d="m 69.454954,99.717042 0.41628,0.909238 -3.50693,1.60559 -0.346933,-0.78407 3.437585,-1.730758 z" id="k1">
      <title id="title479">C1</title>
    </path>
    <path style="display:inline;fill:none;stroke:none;stroke-width:0.00640369;stroke-miterlimit:4;stroke-dasharray:none" d="m 69.871234,100.62628 0.41628,0.90923 -3.506922,1.6056 -0.41629,-0.90924 3.50693,-1.60559 z" id="k2">
      <title id="title482">C2</title>
    </path>
    <path style="display:inline;fill:none;stroke:none;stroke-width:0.00640369;stroke-miterlimit:4;stroke-dasharray:none" d="m 70.287514,101.53551 0.41628,0.90924 -3.50692,1.6056 -0.41628,-0.90924 z" id="k3">
      <title id="title485">C3</title>
    </path>
    <path style="display:inline;fill:none;stroke:none;stroke-width:0.00640369;stroke-miterlimit:4;stroke-dasharray:none" d="m 70.703794,102.44475 0.41628,0.90924 -3.50692,1.60559 -0.41628,-0.90923 3.506922,-1.6056 z" id="k4">
      <title id="title488">C4</title>
    </path>
    <path style="display:inline;fill:none;stroke:none;stroke-width:0.00640369;stroke-miterlimit:4;stroke-dasharray:none" d="m 71.120084,103.354 0.41628,0.90924 -3.50692,1.6056 -0.41628,-0.90924 z" id="k5">
      <title id="title491">C5</title>
    </path>
    <path style="display:inline;fill:none;stroke:none;stroke-width:0.00640369;stroke-miterlimit:4;stroke-dasharray:none" d="m 71.536364,104.26324 0.41628,0.90924 -3.50692,1.60559 -0.41628,-0.90923 3.506922,-1.6056 z" id="k6">
      <title id="title494">C6</title>
    </path>
    <path style="display:inline;fill:none;stroke:none;stroke-width:0.00640369;stroke-miterlimit:4;stroke-dasharray:none" d="m 71.952644,105.17248 0.41629,0.90923 -3.506932,1.6056 -0.41628,-0.90924 3.50692,-1.60559 z" id="k7">
      <title id="title497">C7</title>
    </path>
    <path style="display:inline;fill:none;stroke:none;stroke-width:0.00640369;stroke-miterlimit:4;stroke-dasharray:none" d="m 72.368934,106.08171 0.41628,0.90924 -3.50693,1.60559 -0.416282,-0.90923 3.506934,-1.6056 z" id="k8">
      <title id="title500">C8</title>
    </path>
    <path style="display:inline;fill:none;stroke:none;stroke-width:0.00640369;stroke-miterlimit:4;stroke-dasharray:none" d="m 72.785214,106.99095 0.41628,0.90923 -3.506932,1.6056 -0.41628,-0.90924 3.50693,-1.60559 z" id="k9">
      <title id="title503">C9</title>
    </path>
    <path style="display:inline;fill:none;stroke:none;stroke-width:0.00640369;stroke-miterlimit:4;stroke-dasharray:none" d="m 73.201494,107.90018 0.41628,0.90924 -3.50693,1.6056 -0.41628,-0.90924 z" id="k10">
      <title id="title506">C10</title>
    </path>
    <path style="display:inline;fill:none;stroke:none;stroke-width:0.00640369;stroke-miterlimit:4;stroke-dasharray:none" d="m 73.617774,108.80942 0.41628,0.90924 -3.50693,1.60559 -0.41628,-0.90923 3.506932,-1.6056 z" id="k11">
      <title id="title509">C11</title>
    </path>
    <path style="display:inline;fill:none;stroke:none;stroke-width:0.00640369;stroke-miterlimit:4;stroke-dasharray:none" d="m 74.034054,109.71866 0.41628,0.90923 -3.506932,1.6056 -0.41628,-0.90924 3.50693,-1.60559 z" id="k12">
      <title id="title512">C12</title>
    </path>
    <path style="display:inline;fill:none;stroke:none;stroke-width:0.00640369;stroke-miterlimit:4;stroke-dasharray:none" d="m 74.450334,110.62789 0.41628,0.90924 -3.50693,1.6056 -0.41628,-0.90924 z" id="k13">
      <title id="title515">C13</title>
    </path>
    <path style="display:inline;fill:none;stroke:none;stroke-width:0.00640369;stroke-miterlimit:4;stroke-dasharray:none" d="m 74.866614,111.53713 0.41628,0.90923 -3.506932,1.6056 -0.416278,-0.90923 z" id="k14">
      <title id="title518">C14</title>
    </path>
    <path style="display:inline;fill:none;stroke:none;stroke-width:0.00640369;stroke-miterlimit:4;stroke-dasharray:none" d="m 75.282894,112.44636 0.41628,0.90924 -3.50693,1.6056 -0.41628,-0.90924 z" id="k15">
      <title id="title521">C15</title>
    </path>
    <path style="display:inline;fill:none;stroke:none;stroke-width:0.00640369;stroke-miterlimit:4;stroke-dasharray:none" d="m 75.699174,113.3556 0.41628,0.90924 -3.50693,1.60559 -0.41628,-0.90923 3.506932,-1.6056 z" id="k16">
      <title id="title524">C16</title>
    </path>
  </g>
  <g id="layer3" style="display:inline">
    <path id="j1" d="m 80.908986,101.13915 c 0.13876,0.303 0.277521,0.606 0.416281,0.909 -1.168978,0.536 -2.337955,1.071 -3.506933,1.606 -0.13876,-0.303 -0.277521,-0.606 -0.416281,-0.909 1.168978,-0.535 2.337956,-1.071 3.506933,-1.606 z" style="display:inline;fill:none;stroke:none;stroke-width:0.00640369;stroke-miterlimit:4;stroke-dasharray:none;enable-background:new">
      <title id="title4882">H1</title>
    </path>
    <path id="j2" d="m 81.325267,102.04815 c 0.13876,0.304 0.277521,0.607 0.416281,0.91 -1.168978,0.535 -2.337955,1.07 -3.506933,1.605 -0.13876,-0.303 -0.277521,-0.606 -0.416281,-0.909 1.168978,-0.535 2.337955,-1.07 3.506933,-1.606 z" style="display:inline;fill:none;stroke:none;stroke-width:0.00640369;stroke-miterlimit:4;stroke-dasharray:none;enable-background:new">
      <title id="title4886">H2</title>
    </path>
    <path id="j3" d="m 81.741548,102.95815 c 0.13876,0.303 0.27752,0.606 0.416281,0.909 -1.168978,0.535 -2.337956,1.07 -3.506933,1.606 -0.13876,-0.304 -0.277521,-0.607 -0.416281,-0.91 1.168978,-0.535 2.337955,-1.07 3.506933,-1.605 z" style="display:inline;fill:none;stroke:none;stroke-width:0.00640369;stroke-miterlimit:4;stroke-dasharray:none;enable-background:new">
      <title id="title4890">H3</title>
    </path>
    <path id="j4" d="m 82.157829,103.86715 c 0.13876,0.303 0.27752,0.606 0.41628,0.909 -1.168977,0.535 -2.337955,1.071 -3.506932,1.606 -0.138761,-0.303 -0.277521,-0.606 -0.416281,-0.909 1.168977,-0.536 2.337955,-1.071 3.506933,-1.606 z" style="display:inline;fill:none;stroke:none;stroke-width:0.00640369;stroke-miterlimit:4;stroke-dasharray:none;enable-background:new">
      <title id="title4894">H4</title>
    </path>
  </g>
  <g id="layer4" style="display:inline">
    <path style="fill:none;stroke:none;stroke-width:0.00640369;stroke-miterlimit:4;stroke-dasharray:none" d="m 69.244475,124.90195 h 1 v 3.857 h -1 z" id="i1">
      <title id="title6395">A1</title>
    </path>
    <path style="display:inline;fill:none;stroke:none;stroke-width:0.00640369;stroke-miterlimit:4;stroke-dasharray:none" d="m 70.244475,124.90195 h 1 v 3.857 h -1 z" id="i2">
      <title id="title6392">A2</title>
    </path>
    <path style="display:inline;fill:none;stroke:none;stroke-width:0.00640369;stroke-miterlimit:4;stroke-dasharray:none" d="m 71.244475,124.90195 h 1 v 3.857 h -1 z" id="i3">
      <title id="title6389">A3</title>
    </path>
    <path style="display:inline;fill:none;stroke:none;stroke-width:0.00640369;stroke-miterlimit:4;stroke-dasharray:none" d="m 72.244475,124.90195 h 1 v 3.857 h -1 z" id="i4">
      <title id="title6386">A4</title>
    </path>
    <path style="display:inline;fill:none;stroke:none;stroke-width:0.00640369;stroke-miterlimit:4;stroke-dasharray:none" d="m 73.244475,124.90195 h 1 v 3.857 h -1 z" id="i5">
      <title id="title6383">A5</title>
    </path>
    <path style="display:inline;fill:none;stroke:none;stroke-width:0.00640369;stroke-miterlimit:4;stroke-dasharray:none" d="m 74.244475,124.90195 h 1 v 3.857 h -1 z" id="i6">
      <title id="title6380">A6</title>
    </path>
    <path style="display:inline;fill:none;stroke:none;stroke-width:0.00640369;stroke-miterlimit:4;stroke-dasharray:none" d="m 75.244475,124.90195 h 1 v 3.857 h -1 z" id="i7">
      <title id="title6377">A7</title>
    </path>
    <path style="display:inline;fill:none;stroke:none;stroke-width:0.00640369;stroke-miterlimit:4;stroke-dasharray:none" d="m 76.244475,124.90195 h 1 v 3.857 h -1 z" id="i8">
      <title id="title6374">A8</title>
    </path>
    <path style="display:inline;fill:none;stroke:none;stroke-width:0.00640369;stroke-miterlimit:4;stroke-dasharray:none" d="m 77.244475,124.90195 h 1 v 3.857 h -1 z" id="i9">
      <title id="title6371">A9</title>
    </path>
    <path style="display:inline;fill:none;stroke:none;stroke-width:0.00640369;stroke-miterlimit:4;stroke-dasharray:none" d="m 78.244475,124.90195 h 1 v 3.857 h -1 z" id="i10">
      <title id="title6368">A10</title>
    </path>
    <path style="display:inline;fill:none;stroke:none;stroke-width:0.00640369;stroke-miterlimit:4;stroke-dasharray:none" d="m 79.244475,124.90195 h 1 v 3.857 h -1 z" id="i11">
      <title id="title6365">A11</title>
    </path>
    <path style="display:inline;fill:none;stroke:none;stroke-width:0.00640369;stroke-miterlimit:4;stroke-dasharray:none" d="m 80.244475,124.90195 h 1 v 3.857 h -1 z" id="i12">
      <title id="title6362">A12</title>
    </path>
  </g>
</svg>
